<svg width="107" height="50" viewBox="0 0 107 50" fill="none" xmlns="http://www.w3.org/2000/svg">
<path d="M36.4804 31.408C35.7124 31.408 35.0824 31.288 34.5904 31.048C34.0984 30.796 33.7324 30.466 33.4924 30.058C33.2524 29.65 33.1324 29.2 33.1324 28.708C33.1324 27.88 33.4564 27.208 34.1044 26.692C34.7524 26.176 35.7244 25.918 37.0204 25.918H39.2884V25.702C39.2884 25.09 39.1144 24.64 38.7664 24.352C38.4184 24.064 37.9864 23.92 37.4704 23.92C37.0024 23.92 36.5944 24.034 36.2464 24.262C35.8984 24.478 35.6824 24.802 35.5984 25.234H33.3484C33.4084 24.586 33.6244 24.022 33.9964 23.542C34.3804 23.062 34.8724 22.696 35.4724 22.444C36.0724 22.18 36.7444 22.048 37.4884 22.048C38.7604 22.048 39.7624 22.366 40.4944 23.002C41.2264 23.638 41.5924 24.538 41.5924 25.702V31.192H39.6304L39.4144 29.752C39.1504 30.232 38.7784 30.628 38.2984 30.94C37.8304 31.252 37.2244 31.408 36.4804 31.408ZM37.0024 29.608C37.6624 29.608 38.1724 29.392 38.5324 28.96C38.9044 28.528 39.1384 27.994 39.2344 27.358H37.2724C36.6604 27.358 36.2224 27.472 35.9584 27.7C35.6944 27.916 35.5624 28.186 35.5624 28.51C35.5624 28.858 35.6944 29.128 35.9584 29.32C36.2224 29.512 36.5704 29.608 37.0024 29.608Z" fill="white"/>
<path d="M26.9834 31.408C26.0714 31.408 25.2674 31.21 24.5714 30.814C23.8754 30.418 23.3234 29.866 22.9154 29.158C22.5194 28.45 22.3214 27.64 22.3214 26.728C22.3214 25.816 22.5194 25.006 22.9154 24.298C23.3234 23.59 23.8754 23.038 24.5714 22.642C25.2674 22.246 26.0714 22.048 26.9834 22.048C28.1234 22.048 29.0834 22.348 29.8634 22.948C30.6434 23.536 31.1414 24.352 31.3574 25.396H28.9274C28.8074 24.964 28.5674 24.628 28.2074 24.388C27.8594 24.136 27.4454 24.01 26.9654 24.01C26.3294 24.01 25.7894 24.25 25.3454 24.73C24.9014 25.21 24.6794 25.876 24.6794 26.728C24.6794 27.58 24.9014 28.246 25.3454 28.726C25.7894 29.206 26.3294 29.446 26.9654 29.446C27.4454 29.446 27.8594 29.326 28.2074 29.086C28.5674 28.846 28.8074 28.504 28.9274 28.06H31.3574C31.1414 29.068 30.6434 29.878 29.8634 30.49C29.0834 31.102 28.1234 31.408 26.9834 31.408Z" fill="white"/>
<path d="M15.0062 31.408C13.8902 31.408 13.0262 31.06 12.4142 30.364C11.8142 29.668 11.5142 28.648 11.5142 27.304V22.264H13.8002V27.088C13.8002 27.856 13.9562 28.444 14.2682 28.852C14.5802 29.26 15.0722 29.464 15.7442 29.464C16.3802 29.464 16.9022 29.236 17.3102 28.78C17.7302 28.324 17.9402 27.688 17.9402 26.872V22.264H20.2442V31.192H18.2102L18.0302 29.68C17.7542 30.208 17.3522 30.628 16.8242 30.94C16.3082 31.252 15.7022 31.408 15.0062 31.408Z" fill="white"/>
<path d="M4.23 31.192V26.71L0 18.592H2.61L5.4 24.406L8.172 18.592H10.746L6.534 26.71V31.192H4.23Z" fill="white"/>
<path d="M56.5924 25C56.5924 11.1929 67.7853 0 81.5924 0C95.3995 0 106.592 11.1929 106.592 25C106.592 38.8071 95.3995 50 81.5924 50C67.7853 50 56.5924 38.8071 56.5924 25Z" fill="#00BAC7"/>
<path d="M86.0683 31.5V18.9H88.3723V31.5H86.0683Z" fill="white"/>
<path d="M78.6764 31.716C77.7524 31.716 76.9184 31.536 76.1744 31.176C75.4304 30.804 74.8364 30.246 74.3924 29.502C73.9604 28.758 73.7444 27.816 73.7444 26.676V18.9H76.0484V26.694C76.0484 27.678 76.2824 28.41 76.7504 28.89C77.2304 29.37 77.8904 29.61 78.7304 29.61C79.5584 29.61 80.2124 29.37 80.6924 28.89C81.1724 28.41 81.4124 27.678 81.4124 26.694V18.9H83.7164V26.676C83.7164 27.816 83.4884 28.758 83.0324 29.502C82.5764 30.246 81.9644 30.804 81.1964 31.176C80.4404 31.536 79.6004 31.716 78.6764 31.716Z" fill="white"/>
</svg>
